<?xml version="1.0" encoding="UTF-8" standalone="no"?>
<!DOCTYPE svg PUBLIC "-//W3C//DTD SVG 1.1//EN" "http://www.w3.org/Graphics/SVG/1.1/DTD/svg11.dtd">
<svg version="1.1" xmlns="http://www.w3.org/2000/svg" xmlns:xlink="http://www.w3.org/1999/xlink" preserveAspectRatio="xMidYMid meet" viewBox="0 0 1200 800" width="1200" height="800"><defs><path d="M557.72 36.59L567.53 37.06L577.26 37.75L586.91 38.67L596.48 39.81L605.96 41.16L615.36 42.74L624.68 44.53L633.91 46.55L643.05 48.78L652.1 51.24L661.07 53.91L669.94 56.8L678.72 59.9L687.41 63.22L696 66.76L704.5 70.51L712.91 74.48L721.22 78.66L729.42 83.05L737.53 87.66L745.54 92.48L753.45 97.52L761.26 102.77L768.96 108.22L776.56 113.89L784.05 119.77L791.43 125.86L799.44 132.87L807.07 139.95L814.32 147.12L821.19 154.37L827.68 161.7L833.79 169.09L839.52 176.55L844.88 184.07L849.85 191.65L854.44 199.29L858.65 206.97L862.48 214.7L865.92 222.48L868.99 230.29L871.67 238.13L873.96 246.01L875.87 253.91L877.4 261.83L878.55 269.77L879.3 277.72L879.68 285.68L879.67 293.65L879.27 301.62L878.48 309.58L877.31 317.54L875.75 325.49L873.8 333.43L871.46 341.34L868.74 349.23L865.63 357.1L862.12 364.94L858.23 372.74L853.95 380.5L849.27 388.21L844.21 395.88L838.75 403.5L832.9 411.07L826.66 418.57L820.02 426.01L813 433.39L809.49 436.84L806.07 440.13L802.75 443.28L799.51 446.28L796.36 449.13L793.29 451.83L790.3 454.39L787.39 456.8L784.55 459.06L781.78 461.18L779.07 463.16L776.44 465L773.86 466.69L771.34 468.25L768.88 469.66L766.47 470.94L764.11 472.08L761.79 473.08L759.52 473.95L757.29 474.69L755.1 475.29L752.94 475.75L750.82 476.09L748.72 476.3L746.65 476.37L744.6 476.32L742.58 476.14L740.57 475.83L738.57 475.4L736.58 474.84L734.61 474.16L732.63 473.36L730.66 472.43L728.69 471.38L726.72 470.22L724.74 468.93L722.74 467.53L720.74 466L718.72 464.37L716.68 462.61L715.74 461.76L714.86 460.9L714.04 460.05L713.28 459.2L712.59 458.35L711.95 457.5L711.38 456.64L710.87 455.78L710.43 454.91L710.06 454.04L709.75 453.15L709.5 452.25L709.32 451.34L709.22 450.42L709.18 449.48L709.21 448.52L709.31 447.55L709.48 446.56L709.72 445.54L710.03 444.5L710.42 443.44L710.88 442.36L711.42 441.25L712.02 440.11L712.71 438.94L713.47 437.73L714.31 436.5L715.22 435.23L716.22 433.93L717.29 432.59L718.44 431.21L719.67 429.8L720.98 428.34L722.38 426.84L723.86 425.29L725.42 423.7L727.06 422.07L728.79 420.38L730.6 418.65L732.5 416.87L764.12 385.1L725.31 407.97L723.39 409L721.51 409.98L719.68 410.92L717.89 411.82L716.15 412.68L714.45 413.49L712.79 414.26L711.18 414.99L709.62 415.67L708.1 416.31L706.63 416.91L705.2 417.46L703.82 417.98L702.49 418.44L701.2 418.87L699.96 419.25L698.77 419.6L697.62 419.89L696.53 420.15L695.48 420.36L694.48 420.53L693.53 420.66L692.62 420.74L691.77 420.78L690.97 420.78L690.22 420.73L689.51 420.64L688.86 420.51L688.26 420.34L687.71 420.12L687.21 419.86L686.76 419.56L686.36 419.21L686.02 418.83L685.72 418.39L685.48 417.92L685.3 417.4L685.16 416.84L685.08 416.24L685.06 415.59L685.07 415.02L685.12 414.43L685.2 413.84L685.31 413.24L685.45 412.63L685.62 412.02L685.82 411.41L686.04 410.79L686.3 410.16L686.58 409.54L686.89 408.91L687.23 408.29L687.59 407.66L687.98 407.04L688.39 406.41L688.83 405.79L689.29 405.18L689.77 404.57L690.28 403.96L690.81 403.36L691.36 402.77L691.93 402.19L692.52 401.61L693.13 401.05L693.76 400.49L694.41 399.95L695.08 399.42L695.76 398.9L696.47 398.39L697.19 397.9L697.92 397.43L698.67 396.97L699.44 396.53L700.22 396.11L701.01 395.7L701.82 395.32L702.64 394.95L703.48 394.61L704.32 394.29L705.18 393.99L707.87 392.92L710.55 391.61L713.2 390.08L715.84 388.33L718.44 386.37L721.02 384.22L723.56 381.87L726.07 379.34L728.53 376.64L730.95 373.78L733.31 370.76L735.62 367.6L737.88 364.29L740.07 360.86L742.2 357.31L744.26 353.65L746.25 349.89L748.15 346.03L749.98 342.09L751.72 338.08L753.38 334L754.94 329.86L756.4 325.67L757.76 321.44L759.02 317.18L760.17 312.89L761.21 308.59L762.13 304.29L762.93 299.99L763.6 295.71L764.15 291.44L764.57 287.21L764.85 283.01L764.99 278.87L764.99 274.77L764.84 270.75L764.54 266.8L764.08 262.93L763.46 259.16L762.68 255.48L761.03 248.95L758.88 242.51L756.25 236.17L753.16 229.94L749.62 223.82L745.65 217.82L741.27 211.94L736.5 206.21L731.34 200.61L725.82 195.16L719.96 189.86L713.77 184.73L707.26 179.77L700.45 174.98L693.37 170.37L686.02 165.96L678.43 161.74L670.6 157.72L662.56 153.91L654.33 150.33L645.91 146.96L637.33 143.82L628.6 140.93L619.75 138.28L610.77 135.88L601.7 133.73L592.55 131.86L583.33 130.25L574.07 128.93L564.77 127.89L555.46 127.14L546.15 126.7L536.86 126.56L527.61 126.73L518.4 127.23L509.27 128.05L500.22 129.21L491.27 130.71L482.43 132.56L473.74 134.76L461.87 138.33L450.42 142.16L439.4 146.25L428.8 150.59L418.63 155.16L408.9 159.96L399.61 164.97L390.76 170.19L382.36 175.6L374.41 181.2L366.92 186.97L359.88 192.91L353.31 199.01L347.21 205.25L341.58 211.62L336.42 218.12L331.75 224.73L327.55 231.45L323.85 238.26L320.64 245.16L317.92 252.12L315.7 259.16L313.99 266.24L312.79 273.37L312.1 280.54L311.92 287.72L312.26 294.92L313.13 302.12L314.53 309.32L316.46 316.5L318.92 323.65L321.93 330.76L325.48 337.82L329.58 344.83L334.23 351.77L339.44 358.63L345.21 365.41L351.54 372.08L358.44 378.65L365.92 385.1L367.41 386.34L368.87 387.57L370.3 388.81L371.69 390.04L373.05 391.27L374.37 392.49L375.65 393.71L376.9 394.92L378.11 396.12L379.28 397.31L380.42 398.49L381.51 399.66L382.56 400.81L383.57 401.95L384.54 403.08L385.47 404.19L386.35 405.28L387.19 406.36L387.99 407.41L388.74 408.45L389.45 409.46L390.1 410.45L390.71 411.42L391.28 412.36L391.79 413.28L392.26 414.17L392.67 415.03L393.04 415.87L393.35 416.67L393.61 417.44L393.82 418.18L393.98 418.89L394.08 419.56L394.13 420.2L394.12 420.8L394.06 421.36L393.94 421.89L393.76 422.37L393.53 422.82L393.23 423.22L392.78 423.49L392.3 423.72L391.77 423.93L391.22 424.1L390.63 424.24L390.01 424.34L389.35 424.42L388.67 424.46L387.95 424.47L387.21 424.45L386.45 424.4L385.65 424.32L384.83 424.21L383.99 424.06L383.13 423.89L382.24 423.69L381.33 423.46L380.41 423.19L379.46 422.9L378.5 422.58L377.52 422.24L376.53 421.86L375.52 421.46L374.5 421.02L373.47 420.56L372.42 420.08L371.37 419.56L370.31 419.02L369.24 418.45L368.17 417.86L367.09 417.24L366 416.59L364.91 415.92L363.82 415.22L362.73 414.5L361.64 413.75L360.55 412.98L359.46 412.18L358.38 411.36L357.29 410.51L356.21 409.57L355.12 408.64L354.02 407.72L352.91 406.82L351.79 405.94L350.68 405.07L349.55 404.22L348.43 403.39L347.3 402.57L346.18 401.78L345.05 401L343.93 400.24L342.81 399.5L341.7 398.79L340.59 398.09L339.49 397.42L338.4 396.77L337.32 396.14L336.25 395.53L335.19 394.95L334.15 394.39L333.12 393.85L332.1 393.34L331.11 392.85L330.13 392.39L329.17 391.96L328.23 391.55L327.32 391.17L326.42 390.82L325.56 390.5L324.71 390.2L323.9 389.94L323.11 389.7L322.35 389.49L321.62 389.32L320.93 389.17L320.26 389.06L319.63 388.98L319.04 388.93L318.48 388.91L318.08 388.93L317.72 388.98L317.43 389.08L317.18 389.21L316.98 389.37L316.84 389.57L316.74 389.81L316.7 390.08L316.7 390.38L316.75 390.72L316.85 391.08L316.99 391.48L317.18 391.91L317.42 392.37L317.7 392.86L318.02 393.38L318.39 393.93L318.8 394.51L319.25 395.11L319.74 395.74L320.27 396.4L320.84 397.08L321.45 397.78L322.1 398.52L322.79 399.27L323.51 400.05L324.28 400.85L325.07 401.67L325.9 402.52L326.77 403.38L327.67 404.27L328.6 405.17L329.57 406.1L330.56 407.04L331.59 408L332.65 408.98L333.74 409.98L334.85 410.99L336 412.01L337.17 413.05L340.01 415.22L342.71 417.35L345.27 419.44L347.69 421.49L349.97 423.5L352.11 425.47L354.11 427.41L355.97 429.31L357.69 431.18L359.27 433.01L360.71 434.81L362.01 436.58L363.17 438.32L364.19 440.03L365.07 441.71L365.8 443.37L366.4 445L366.86 446.6L367.18 448.19L367.36 449.75L367.39 451.28L367.29 452.8L367.05 454.3L366.67 455.78L366.14 457.24L365.48 458.69L364.68 460.12L363.73 461.54L362.65 462.95L361.43 464.34L360.06 465.72L358.56 467.1L356.92 468.46L355.13 469.82L353.21 471.17L351.14 472.51L348.94 473.85L346.59 475.19L344.11 476.53L341.48 477.86L339.77 478.59L338.1 479.26L336.46 479.86L334.84 480.39L333.25 480.86L331.67 481.25L330.11 481.57L328.55 481.81L327.01 481.97L325.47 482.05L323.92 482.05L322.37 481.97L320.81 481.8L319.24 481.54L317.65 481.19L316.04 480.75L314.41 480.21L312.74 479.58L311.05 478.85L309.32 478.02L307.54 477.09L305.73 476.05L303.86 474.91L301.94 473.65L299.97 472.29L297.94 470.81L295.84 469.22L293.67 467.52L291.44 465.69L289.12 463.74L286.73 461.68L284.26 459.48L281.69 457.16L279.04 454.71L276.29 452.13L273.44 449.42L270.49 446.57L267.43 443.59L264.26 440.46L260.98 437.2L256.54 432.5L252.3 427.92L248.23 423.46L244.34 419.11L240.63 414.86L237.1 410.7L233.73 406.62L230.54 402.61L227.51 398.67L224.64 394.79L221.92 390.95L219.37 387.15L216.97 383.38L214.72 379.64L212.61 375.9L210.65 372.18L208.83 368.44L207.15 364.7L205.61 360.93L204.2 357.14L202.91 353.31L201.75 349.43L200.72 345.49L199.81 341.49L199.01 337.42L198.33 333.27L197.76 329.03L197.3 324.69L196.95 320.24L196.69 315.68L196.54 311L196.48 306.18L196.52 301.22L196.65 296.11L196.87 290.84L197.17 285.41L197.55 279.8L198.01 274.01L198.55 268.02L199.16 261.83L200.16 254.16L201.41 246.6L202.93 239.13L204.71 231.77L206.74 224.52L209.02 217.38L211.56 210.34L214.34 203.42L217.38 196.61L220.66 189.92L224.18 183.34L227.95 176.88L231.96 170.54L236.2 164.33L240.68 158.23L245.4 152.26L250.34 146.42L255.52 140.71L260.92 135.13L266.55 129.68L272.4 124.36L278.48 119.17L284.77 114.13L291.28 109.22L298.01 104.45L304.95 99.83L312.1 95.35L319.47 91.01L327.03 86.82L334.81 82.78L342.79 78.88L350.97 75.14L359.35 71.56L367.93 68.13L376.7 64.85L385.66 61.74L394.82 58.78L404.17 55.99L413.7 53.35L423.42 50.89L434.17 48.43L444.85 46.2L455.47 44.2L466.02 42.42L476.5 40.87L486.91 39.55L497.25 38.45L507.51 37.58L517.71 36.94L527.82 36.51L537.87 36.32L547.83 36.34L557.72 36.59ZM284.9 339.36L284.08 340.51L283.43 342.1L282.94 344.13L282.64 346.6L282.54 349.52L282.6 350.87L282.78 352.25L283.06 353.64L283.46 355.03L283.96 356.41L284.56 357.78L285.27 359.14L286.06 360.46L286.95 361.75L287.93 363L288.99 364.19L290.13 365.33L291.34 366.4L292.64 367.39L294 368.3L295.43 369.12L296.92 369.85L298.37 370.43L299.67 370.83L300.82 371.06L301.83 371.11L302.7 371L303.43 370.73L304.02 370.3L304.47 369.72L304.79 368.99L304.97 368.12L305.02 367.11L304.94 365.96L304.74 364.69L304.41 363.3L303.95 361.78L303.37 360.15L302.67 358.41L300.89 354.57L299.13 351.13L297.4 348.1L295.7 345.46L294.04 343.24L292.46 341.43L290.94 340.03L289.51 339.05L288.18 338.49L286.96 338.35L285.86 338.64L284.9 339.36ZM440.31 109.66L437.65 110.3L434.95 111.13L432.26 112.17L429.64 113.39L427.12 114.79L424.77 116.37L422.61 118.11L420.71 120L419.11 122.05L418.48 123.26L418.04 124.36L417.77 125.34L417.68 126.21L417.75 126.96L417.99 127.6L418.39 128.14L418.94 128.56L419.65 128.88L420.5 129.09L421.49 129.2L422.62 129.2L423.89 129.11L425.28 128.91L426.8 128.61L428.43 128.21L430.18 127.72L432.05 127.13L434.18 126.48L436.24 125.78L438.24 125.05L440.17 124.29L442.01 123.5L443.76 122.71L445.41 121.91L446.96 121.1L448.4 120.3L449.72 119.52L450.9 118.75L451.96 118L452.87 117.29L453.64 116.62L454.24 115.99L454.68 115.41L454.96 114.88L455.05 114.43L454.8 112.87L454.1 111.59L452.98 110.58L451.51 109.82L449.71 109.32L447.65 109.06L445.36 109.04L442.9 109.24L440.31 109.66ZM590.18 97.91L587.17 97.96L584.48 98.1L582.1 98.33L580.06 98.65L578.36 99.04L577 99.49L575.99 100.01L575.34 100.58L575.07 101.2L575.16 101.86L575.64 102.55L576.52 103.27L577.79 104.02L579.46 104.77L581.55 105.53L583.6 106.23L585.7 106.79L587.84 107.23L590 107.54L592.15 107.74L594.27 107.83L596.35 107.81L598.36 107.68L600.29 107.45L602.1 107.13L603.79 106.72L605.34 106.22L606.71 105.64L607.89 104.99L608.87 104.26L609.83 103.5L610.42 102.75L610.65 102.01L610.54 101.31L610.09 100.64L609.33 100.01L608.25 99.44L606.89 98.93L605.24 98.5L603.33 98.14L601.16 97.88L598.75 97.71L596.1 97.66L593.24 97.72L590.18 97.91ZM518.3 97.91L515.29 97.96L512.6 98.1L510.23 98.33L508.18 98.65L506.48 99.04L505.12 99.49L504.11 100.01L503.47 100.58L503.19 101.2L503.29 101.86L503.77 102.55L504.64 103.27L505.91 104.02L507.58 104.77L509.67 105.53L511.72 106.23L513.83 106.79L515.97 107.23L518.12 107.54L520.27 107.74L522.39 107.83L524.47 107.81L526.48 107.68L528.41 107.45L530.23 107.13L531.92 106.72L533.46 106.22L534.83 105.64L536.01 104.99L536.99 104.26L537.95 103.5L538.54 102.75L538.77 102.01L538.66 101.31L538.21 100.64L537.45 100.01L536.38 99.44L535.01 98.93L533.37 98.5L531.45 98.14L529.28 97.88L526.87 97.71L524.22 97.66L521.36 97.72L518.3 97.91Z" id="c2TxDoqPLF"></path><path d="M401.86 538.86C420.55 555.38 432.05 555.38 462.24 543.94C508.24 524.88 577.24 524.88 613.18 541.4C641.93 554.11 685.06 546.48 685.06 527.42C685.06 505.82 598.8 477.86 531.24 477.86C493.86 479.13 443.55 488.03 420.55 498.19C383.17 517.26 381.73 519.8 401.86 538.86Z" id="c1ruxvcPeT"></path><path d="M598.8 636.71C624.68 608.75 603.12 592.23 539.86 592.23C503.92 592.23 483.8 598.58 483.8 608.75C483.8 651.96 565.74 672.29 598.8 636.71Z" id="c4yOsSGJ5q"></path><path d="M100.45 706.64L102.72 706.69L104.9 706.76L107.01 706.86L109.03 706.98L110.97 707.12L112.84 707.29L114.63 707.49L116.35 707.71L117.99 707.96L119.56 708.24L121.05 708.56L122.48 708.9L123.84 709.28L125.12 709.69L126.35 710.13L127.5 710.61L128.59 711.13L129.62 711.68L130.59 712.27L131.49 712.9L132.34 713.57L133.13 714.28L133.86 715.04L134.53 715.83L135.15 716.67L135.72 717.56L136.23 718.49L136.7 719.46L137.11 720.49L137.48 721.56L137.79 722.68L138.06 723.86L138.29 725.08L138.47 726.36L138.61 727.69L138.71 729.08L138.77 730.52L138.79 732.01L138.77 733.24L138.71 734.43L138.62 735.6L138.49 736.74L138.32 737.85L138.11 738.93L137.87 739.98L137.59 741L137.27 741.99L136.92 742.95L136.53 743.89L136.11 744.79L135.65 745.66L135.15 746.5L134.62 747.31L134.05 748.1L133.44 748.85L132.8 749.57L132.13 750.26L131.42 750.92L130.67 751.54L129.89 752.14L129.08 752.71L128.23 753.24L127.35 753.74L126.43 754.21L125.47 754.65L124.49 755.06L123.47 755.44L122.41 755.78L121.32 756.09L120.2 756.37L119.05 756.62L117.86 756.83L116.64 757.01L115.38 757.16L114.09 757.28L112.77 757.36L111.42 757.41L110.04 757.43L108.86 757.44L107.69 757.47L106.53 757.51L105.39 757.58L104.26 757.66L103.15 757.76L102.05 757.88L100.97 758.02L99.91 758.17L98.87 758.34L97.85 758.53L96.85 758.73L95.87 758.95L94.92 759.19L93.99 759.44L93.08 759.7L92.2 759.99L91.35 760.28L90.53 760.6L89.73 760.92L88.96 761.26L88.23 761.62L87.52 761.99L86.85 762.37L86.21 762.76L85.61 763.17L85.04 763.59L84.51 764.03L84.01 764.47L83.55 764.93L83.14 765.4L82.76 765.89L82.42 766.38L82.12 766.88L81.87 767.4L81.66 767.93L81.5 768.46L81.38 769.01L81.31 769.57L81.28 770.14L81.27 770.61L81.24 771.09L81.19 771.56L81.12 772.04L81.02 772.51L80.91 772.97L80.77 773.44L80.62 773.9L80.44 774.35L80.25 774.8L80.04 775.25L79.81 775.68L79.56 776.11L79.29 776.53L79.01 776.95L78.71 777.35L78.39 777.75L78.05 778.13L77.7 778.51L77.33 778.87L76.95 779.22L76.54 779.56L76.13 779.89L75.7 780.2L75.25 780.5L74.79 780.78L74.31 781.05L73.82 781.3L73.31 781.53L72.79 781.75L72.26 781.95L71.72 782.13L71.16 782.29L70.59 782.44L70 782.56L69.41 782.66L68.8 782.74L68.18 782.8L67.55 782.83L66.91 782.84L66.37 782.81L65.83 782.71L65.29 782.55L64.76 782.32L64.23 782.04L63.7 781.69L63.17 781.29L62.65 780.83L62.14 780.31L61.63 779.75L61.13 779.12L60.63 778.45L60.15 777.73L59.67 776.96L59.2 776.14L58.74 775.28L58.3 774.37L57.86 773.42L57.44 772.44L57.03 771.41L56.63 770.34L56.25 769.23L55.88 768.1L55.52 766.92L55.19 765.72L54.87 764.48L54.56 763.22L54.28 761.92L54.01 760.6L53.77 759.25L53.54 757.88L53.34 756.49L53.16 755.08L52.99 753.65L52.86 752.2L52.74 750.73L52.65 749.25L52.59 747.75L52.55 746.24L52.53 744.72L52.54 742.2L52.57 739.8L52.62 737.5L52.69 735.32L52.79 733.23L52.93 731.25L53.09 729.37L53.29 727.58L53.53 725.89L53.81 724.29L54.14 722.78L54.51 721.35L54.94 720.02L55.41 718.76L55.95 717.58L56.54 716.48L57.19 715.45L57.9 714.5L58.69 713.61L59.54 712.79L60.47 712.04L61.47 711.35L62.55 710.71L63.71 710.14L64.96 709.61L66.29 709.14L67.71 708.72L69.23 708.35L70.84 708.02L72.55 707.73L74.36 707.48L76.27 707.27L78.29 707.09L80.42 706.94L82.66 706.83L85.02 706.74L87.5 706.67L90.09 706.63L92.81 706.61L95.66 706.6L98.1 706.61L100.45 706.64ZM93.14 719.51L91.89 719.77L90.68 720.12L89.5 720.56L88.37 721.09L87.28 721.71L86.26 722.42L85.31 723.2L84.44 724.06L83.65 725L82.97 726.01L82.38 727.09L81.92 728.23L81.57 729.43L81.36 730.69L81.28 732.01L81.36 733.13L81.57 734.24L81.92 735.34L82.38 736.41L82.97 737.46L83.65 738.46L84.44 739.42L85.31 740.32L86.26 741.16L87.28 741.93L88.37 742.63L89.5 743.23L90.68 743.75L91.89 744.16L93.14 744.47L94.39 744.66L95.66 744.72L97.15 744.66L98.58 744.47L99.94 744.16L101.23 743.75L102.45 743.23L103.59 742.63L104.65 741.93L105.63 741.16L106.52 740.32L107.31 739.42L108.01 738.46L108.62 737.46L109.12 736.41L109.51 735.34L109.8 734.24L109.98 733.13L110.04 732.01L109.98 730.69L109.8 729.43L109.51 728.23L109.12 727.09L108.62 726.01L108.01 725L107.31 724.06L106.52 723.2L105.63 722.42L104.65 721.71L103.59 721.09L102.45 720.56L101.23 720.12L99.94 719.77L98.58 719.51L97.15 719.36L95.66 719.31L94.39 719.36L93.14 719.51Z" id="c7DoxIRc3"></path><path d="M200.22 706.63L202.74 706.67L205.14 706.74L207.43 706.83L209.62 706.94L211.7 707.09L213.68 707.27L215.56 707.48L217.34 707.73L219.02 708.02L220.61 708.35L222.11 708.72L223.52 709.14L224.85 709.61L226.09 710.14L227.24 710.71L228.32 711.35L229.32 712.04L230.25 712.79L231.1 713.61L231.89 714.5L232.6 715.45L233.25 716.48L233.84 717.58L234.36 718.76L234.83 720.02L235.23 721.35L235.59 722.78L235.89 724.29L236.14 725.89L236.34 727.58L236.5 729.37L236.62 731.25L236.69 733.23L236.73 735.32L236.73 737.5L236.7 739.8L236.63 742.2L236.54 744.72L236.41 747.62L236.22 750.42L235.98 753.11L235.69 755.69L235.36 758.16L234.98 760.52L234.55 762.77L234.08 764.9L233.57 766.92L233.01 768.82L232.42 770.61L231.79 772.28L231.13 773.83L230.43 775.26L229.69 776.57L228.93 777.76L228.13 778.82L227.31 779.76L226.46 780.57L225.58 781.25L224.68 781.81L223.75 782.23L222.81 782.53L221.84 782.69L220.86 782.72L219.86 782.61L218.84 782.37L217.81 781.99L216.77 781.47L215.72 780.82L214.66 780.02L213.59 779.08L212.51 778L211.43 776.77L210.34 775.4L209.25 773.88L208.17 772.22L207.08 770.4L205.99 768.44L204.91 766.32L204.38 765.39L203.87 764.51L203.37 763.68L202.88 762.89L202.4 762.15L201.94 761.46L201.49 760.82L201.05 760.22L200.62 759.68L200.2 759.18L199.78 758.72L199.38 758.32L198.98 757.96L198.58 757.65L198.19 757.39L197.81 757.17L197.42 757.01L197.04 756.89L196.67 756.82L196.29 756.79L195.91 756.82L195.53 756.89L195.15 757.01L194.77 757.17L194.39 757.39L194 757.65L193.6 757.96L193.2 758.32L192.79 758.72L192.38 759.18L191.96 759.68L191.53 760.22L191.09 760.82L190.64 761.46L190.17 762.15L189.7 762.89L189.21 763.68L188.71 764.51L188.19 765.39L187.66 766.32L186.57 768.44L185.47 770.39L184.34 772.2L183.2 773.85L182.05 775.35L180.89 776.7L179.73 777.9L178.56 778.96L177.38 779.87L176.21 780.64L175.04 781.27L173.87 781.75L172.71 782.1L171.57 782.31L170.43 782.38L169.31 782.32L168.21 782.13L167.12 781.81L166.06 781.36L165.02 780.78L164.01 780.07L163.03 779.24L162.08 778.29L161.17 777.21L160.29 776.01L159.45 774.7L158.65 773.27L157.9 771.72L157.19 770.06L156.53 768.29L155.92 766.4L155.37 764.41L154.87 762.31L154.43 760.1L154.06 757.79L153.74 755.38L153.49 752.86L153.31 750.25L153.2 747.53L153.16 744.72L153.17 742.2L153.2 739.8L153.25 737.5L153.32 735.32L153.42 733.23L153.55 731.25L153.71 729.37L153.91 727.58L154.14 725.89L154.42 724.29L154.74 722.78L155.1 721.35L155.52 720.02L155.98 718.76L156.5 717.58L157.07 716.48L157.71 715.45L158.4 714.5L159.16 713.61L159.99 712.79L160.89 712.04L161.86 711.35L162.91 710.71L164.03 710.14L165.24 709.61L166.52 709.14L167.9 708.72L169.36 708.35L170.92 708.02L172.57 707.73L174.32 707.48L176.16 707.27L178.11 707.09L180.17 706.94L182.33 706.83L184.6 706.74L186.99 706.67L189.49 706.63L192.11 706.61L194.85 706.6L197.6 706.61L200.22 706.63ZM193.76 719.51L192.52 719.77L191.31 720.12L190.13 720.56L188.99 721.09L187.91 721.71L186.89 722.42L185.94 723.2L185.07 724.06L184.28 725L183.6 726.01L183.01 727.09L182.55 728.23L182.2 729.43L181.99 730.69L181.91 732.01L181.99 733.13L182.2 734.24L182.55 735.34L183.01 736.41L183.6 737.46L184.28 738.46L185.07 739.42L185.94 740.32L186.89 741.16L187.91 741.93L188.99 742.63L190.13 743.23L191.31 743.75L192.52 744.16L193.76 744.47L195.02 744.66L196.29 744.72L197.78 744.66L199.21 744.47L200.57 744.16L201.86 743.75L203.08 743.23L204.22 742.63L205.28 741.93L206.26 741.16L207.14 740.32L207.94 739.42L208.64 738.46L209.25 737.46L209.75 736.41L210.14 735.34L210.43 734.24L210.61 733.13L210.66 732.01L210.61 730.69L210.43 729.43L210.14 728.23L209.75 727.09L209.25 726.01L208.64 725L207.94 724.06L207.14 723.2L206.26 722.42L205.28 721.71L204.22 721.09L203.08 720.56L201.86 720.12L200.57 719.77L199.21 719.51L197.78 719.36L196.29 719.31L195.02 719.36L193.76 719.51Z" id="b73mmF9sN0"></path><path d="M302.76 706.71L306.2 706.86L309.5 707.06L312.68 707.32L315.72 707.65L318.64 708.03L321.42 708.48L324.08 708.99L326.61 709.56L329.01 710.19L331.29 710.89L333.44 711.65L335.47 712.47L337.38 713.37L339.16 714.32L340.82 715.35L342.36 716.44L343.78 717.6L345.08 718.83L346.26 720.13L347.32 721.49L348.26 722.93L349.09 724.44L349.81 726.02L350.41 727.67L350.89 729.4L351.27 731.19L351.53 733.06L351.68 735.01L351.72 737.03L351.65 739.13L351.47 741.3L351.18 743.55L350.79 745.88L350.28 748.28L349.68 750.77L348.97 753.33L348.15 755.98L347.23 758.7L345.95 761.65L344.48 764.4L342.83 766.96L341.01 769.32L339.04 771.49L336.92 773.46L334.67 775.25L332.29 776.86L329.81 778.27L327.22 779.51L324.54 780.56L321.78 781.43L318.96 782.13L316.07 782.65L313.14 783L310.18 783.18L307.19 783.19L304.18 783.02L301.17 782.7L298.18 782.21L295.19 781.55L292.24 780.74L289.33 779.77L286.47 778.64L283.68 777.36L280.96 775.93L278.32 774.34L275.78 772.61L273.34 770.73L271.02 768.71L268.83 766.54L266.77 764.23L264.87 761.78L263.13 759.2L261.56 756.47L260.17 753.62L258.98 750.63L257.99 747.52L257.21 744.28L256.67 740.91L256.36 738.67L256.09 736.53L255.85 734.49L255.66 732.54L255.5 730.68L255.39 728.91L255.33 727.23L255.32 725.63L255.36 724.11L255.45 722.68L255.6 721.33L255.81 720.05L256.08 718.84L256.42 717.71L256.82 716.65L257.29 715.66L257.83 714.73L258.44 713.86L259.13 713.06L259.9 712.32L260.75 711.63L261.68 711L262.7 710.42L263.81 709.89L265 709.41L266.29 708.98L267.68 708.59L269.16 708.24L270.75 707.94L272.43 707.67L274.23 707.44L276.12 707.24L278.13 707.07L280.25 706.93L282.49 706.82L284.84 706.73L287.32 706.67L289.91 706.63L292.63 706.61L295.48 706.6L299.19 706.63L302.76 706.71ZM290.87 720.92L289.72 721.17L288.67 721.54L287.72 722.01L286.87 722.59L286.14 723.28L285.5 724.06L284.98 724.95L284.57 725.94L284.26 727.02L284.08 728.19L284 729.46L284.05 730.82L284.21 732.26L284.49 733.79L284.89 735.4L285.42 737.1L286.15 740.26L287.16 743.17L288.41 745.82L289.87 748.21L291.52 750.33L293.32 752.18L295.24 753.76L297.26 755.06L299.34 756.08L301.45 756.82L303.57 757.27L305.65 757.43L307.69 757.29L309.63 756.85L311.46 756.11L313.14 755.07L314.65 753.71L315.95 752.05L317.01 750.06L317.81 747.76L318.31 745.13L318.48 742.18L318.43 741.13L318.27 740.07L318.02 739L317.67 737.93L317.23 736.86L316.7 735.79L316.09 734.72L315.4 733.66L314.64 732.62L313.81 731.59L312.91 730.58L311.95 729.6L310.93 728.64L309.85 727.72L308.73 726.82L307.56 725.97L306.35 725.16L305.1 724.39L303.81 723.67L302.5 723.01L301.15 722.4L299.79 721.85L298.07 721.39L296.44 721.06L294.91 720.84L293.47 720.75L292.12 720.78L290.87 720.92Z" id="bd7DVrAWk"></path><path d="M390.36 749.8C375.98 744.72 368.79 749.8 368.79 763.78C368.79 777.76 378.86 782.84 401.86 780.3C424.86 777.76 434.92 766.32 437.8 740.91C440.67 721.85 436.36 706.6 427.73 706.6C419.11 706.6 411.92 718.03 411.92 732.01C411.92 748.53 404.73 754.89 390.36 749.8Z" id="cOcQ6m8k"></path><path d="M502.49 781.57C526.93 780.3 536.99 777.76 524.05 773.95C509.67 771.41 498.17 763.78 498.17 757.43C498.17 751.07 509.67 743.45 524.05 740.91C541.3 737.1 538.43 734.55 512.55 732.01C510.15 731.84 498.17 731 476.61 729.47C498.17 723.37 510.15 719.98 512.55 719.31C547.05 709.14 545.61 709.14 502.49 707.87C459.36 706.6 455.05 710.41 455.05 744.72C455.05 779.03 459.36 782.84 502.49 781.57Z" id="dTS1CfjEG"></path><path d="M577.24 777.76C605.99 787.93 646.24 773.95 634.74 757.43C627.55 747.26 618.93 748.53 604.55 758.7C588.74 770.14 584.43 767.59 584.43 745.99C584.43 723.12 590.18 719.31 614.62 725.66C636.18 732.01 641.93 730.74 636.18 720.58C630.43 712.95 610.3 706.6 590.18 706.6C562.86 706.6 555.68 712.95 555.68 738.37C555.68 756.16 565.74 773.95 577.24 777.76Z" id="gysfSFc63"></path><path d="M712.37 748.53C715.24 735.82 723.87 721.85 733.93 716.76C742.56 711.68 729.62 706.6 703.74 706.6C663.49 706.6 659.18 709.14 667.81 738.37C679.31 775.22 703.74 781.57 712.37 748.53Z" id="b27Ukkf7r8"></path><path d="M836 782.84C871.94 782.84 892.06 767.59 876.25 752.34C871.94 748.53 859 751.07 847.5 758.7C833.12 770.14 828.81 767.59 828.81 745.99C828.81 723.12 834.56 719.31 859 725.66C880.56 732.01 886.31 730.74 880.56 720.58C866.19 700.24 804.37 704.06 794.31 725.66C781.37 756.16 800.06 782.84 836 782.84Z" id="a7Rzi0Cc8"></path><path d="M940.94 781.57C963.94 780.3 969.69 777.76 955.32 773.95C940.94 771.41 929.44 763.78 929.44 757.43C929.44 751.07 940.94 743.45 955.32 740.91C975.44 735.82 975.44 734.55 951 732.01C949.09 731.93 939.5 731.5 922.25 730.74C939.5 723.88 949.09 720.07 951 719.31C976.88 709.14 975.44 707.87 940.94 707.87C905 706.6 900.69 711.68 900.69 744.72C900.69 777.76 905 782.84 940.94 781.57Z" id="aSqFuJUy"></path><path d="M1043.01 781.57C1067.44 780.3 1071.76 777.76 1055.94 773.95C1040.13 770.14 1030.07 756.16 1030.07 737.1C1030.07 705.33 1008.5 695.16 997 721.85C984.07 756.16 1004.19 782.84 1043.01 781.57Z" id="a65UrL563D"></path><path d="M1127.82 781.57C1150.82 780.3 1156.57 777.76 1142.2 773.95C1126.38 770.14 1116.32 756.16 1116.32 737.1C1116.32 720.58 1110.57 706.6 1101.95 706.6C1094.76 706.6 1087.57 723.12 1087.57 744.72C1087.57 777.76 1091.88 782.84 1127.82 781.57Z" id="a5vauxBNLr"></path><path d="M401.86 538.86C420.55 555.38 432.05 555.38 462.24 543.94C508.24 524.88 577.24 524.88 613.18 541.4C641.93 554.11 685.06 546.48 685.06 527.42C685.06 505.82 598.8 477.86 531.24 477.86C493.86 479.13 443.55 488.03 420.55 498.19C383.17 517.26 381.73 519.8 401.86 538.86Z" id="a3b586zw2M"></path><path d="M598.8 636.71C624.68 608.75 603.12 592.23 539.86 592.23C503.92 592.23 483.8 598.58 483.8 608.75C483.8 651.96 565.74 672.29 598.8 636.71Z" id="dEDTiR2bk"></path><path d="M100.45 706.64L102.72 706.69L104.9 706.76L107.01 706.86L109.03 706.98L110.97 707.12L112.84 707.29L114.63 707.49L116.35 707.71L117.99 707.96L119.56 708.24L121.05 708.56L122.48 708.9L123.84 709.28L125.12 709.69L126.35 710.13L127.5 710.61L128.59 711.13L129.62 711.68L130.59 712.27L131.49 712.9L132.34 713.57L133.13 714.28L133.86 715.04L134.53 715.83L135.15 716.67L135.72 717.56L136.23 718.49L136.7 719.46L137.11 720.49L137.48 721.56L137.79 722.68L138.06 723.86L138.29 725.08L138.47 726.36L138.61 727.69L138.71 729.08L138.77 730.52L138.79 732.01L138.77 733.24L138.71 734.43L138.62 735.6L138.49 736.74L138.32 737.85L138.11 738.93L137.87 739.98L137.59 741L137.27 741.99L136.92 742.95L136.53 743.89L136.11 744.79L135.65 745.66L135.15 746.5L134.62 747.31L134.05 748.1L133.44 748.85L132.8 749.57L132.13 750.26L131.42 750.92L130.67 751.54L129.89 752.14L129.08 752.71L128.23 753.24L127.35 753.74L126.43 754.21L125.47 754.65L124.49 755.06L123.47 755.44L122.41 755.78L121.32 756.09L120.2 756.37L119.05 756.62L117.86 756.83L116.64 757.01L115.38 757.16L114.09 757.28L112.77 757.36L111.42 757.41L110.04 757.43L108.86 757.44L107.69 757.47L106.53 757.51L105.39 757.58L104.26 757.66L103.15 757.76L102.05 757.88L100.97 758.02L99.91 758.17L98.87 758.34L97.85 758.53L96.85 758.73L95.87 758.95L94.92 759.19L93.99 759.44L93.08 759.7L92.2 759.99L91.35 760.28L90.53 760.6L89.73 760.92L88.96 761.26L88.23 761.62L87.52 761.99L86.85 762.37L86.21 762.76L85.61 763.17L85.04 763.59L84.51 764.03L84.01 764.47L83.55 764.93L83.14 765.4L82.76 765.89L82.42 766.38L82.12 766.88L81.87 767.4L81.66 767.93L81.5 768.46L81.38 769.01L81.31 769.57L81.28 770.14L81.27 770.61L81.24 771.09L81.19 771.56L81.12 772.04L81.02 772.51L80.91 772.97L80.77 773.44L80.62 773.9L80.44 774.35L80.25 774.8L80.04 775.25L79.81 775.68L79.56 776.11L79.29 776.53L79.01 776.95L78.71 777.35L78.39 777.75L78.05 778.13L77.7 778.51L77.33 778.87L76.95 779.22L76.54 779.56L76.13 779.89L75.7 780.2L75.25 780.5L74.79 780.78L74.31 781.05L73.82 781.3L73.31 781.53L72.79 781.75L72.26 781.95L71.72 782.13L71.16 782.29L70.59 782.44L70 782.56L69.41 782.66L68.8 782.74L68.18 782.8L67.55 782.83L66.91 782.84L66.37 782.81L65.83 782.71L65.29 782.55L64.76 782.32L64.23 782.04L63.7 781.69L63.17 781.29L62.65 780.83L62.14 780.31L61.63 779.75L61.13 779.12L60.63 778.45L60.15 777.73L59.67 776.96L59.2 776.14L58.74 775.28L58.3 774.37L57.86 773.42L57.44 772.44L57.03 771.41L56.63 770.34L56.25 769.23L55.88 768.1L55.52 766.92L55.19 765.72L54.87 764.48L54.56 763.22L54.28 761.92L54.01 760.6L53.77 759.25L53.54 757.88L53.34 756.49L53.16 755.08L52.99 753.65L52.86 752.2L52.74 750.73L52.65 749.25L52.59 747.75L52.55 746.24L52.53 744.72L52.54 742.2L52.57 739.8L52.62 737.5L52.69 735.32L52.79 733.23L52.93 731.25L53.09 729.37L53.29 727.58L53.53 725.89L53.81 724.29L54.14 722.78L54.51 721.35L54.94 720.02L55.41 718.76L55.95 717.58L56.54 716.48L57.19 715.45L57.9 714.5L58.69 713.61L59.54 712.79L60.47 712.04L61.47 711.35L62.55 710.71L63.71 710.14L64.96 709.61L66.29 709.14L67.71 708.72L69.23 708.35L70.84 708.02L72.55 707.73L74.36 707.48L76.27 707.27L78.29 707.09L80.42 706.94L82.66 706.83L85.02 706.74L87.5 706.67L90.09 706.63L92.81 706.61L95.66 706.6L98.1 706.61L100.45 706.64ZM93.14 719.51L91.89 719.77L90.68 720.12L89.5 720.56L88.37 721.09L87.28 721.71L86.26 722.42L85.31 723.2L84.44 724.06L83.65 725L82.97 726.01L82.38 727.09L81.92 728.23L81.57 729.43L81.36 730.69L81.28 732.01L81.36 733.13L81.57 734.24L81.92 735.34L82.38 736.41L82.97 737.46L83.65 738.46L84.44 739.42L85.31 740.32L86.26 741.16L87.28 741.93L88.37 742.63L89.5 743.23L90.68 743.75L91.89 744.16L93.14 744.47L94.39 744.66L95.66 744.72L97.15 744.66L98.58 744.47L99.94 744.16L101.23 743.75L102.45 743.23L103.59 742.63L104.65 741.93L105.63 741.16L106.52 740.32L107.31 739.42L108.01 738.46L108.62 737.46L109.12 736.41L109.51 735.34L109.8 734.24L109.98 733.13L110.04 732.01L109.98 730.69L109.8 729.43L109.51 728.23L109.12 727.09L108.62 726.01L108.01 725L107.31 724.06L106.52 723.2L105.63 722.42L104.65 721.71L103.59 721.09L102.45 720.56L101.23 720.12L99.94 719.77L98.58 719.51L97.15 719.36L95.66 719.31L94.39 719.36L93.14 719.51Z" id="bLafu3zeB"></path><path d="M200.22 706.63L202.74 706.67L205.14 706.74L207.43 706.83L209.62 706.94L211.7 707.09L213.68 707.27L215.56 707.48L217.34 707.73L219.02 708.02L220.61 708.35L222.11 708.72L223.52 709.14L224.85 709.61L226.09 710.14L227.24 710.71L228.32 711.35L229.32 712.04L230.25 712.79L231.1 713.61L231.89 714.5L232.6 715.45L233.25 716.48L233.84 717.58L234.36 718.76L234.83 720.02L235.23 721.35L235.59 722.78L235.89 724.29L236.14 725.89L236.34 727.58L236.5 729.37L236.62 731.25L236.69 733.23L236.73 735.32L236.73 737.5L236.7 739.8L236.63 742.2L236.54 744.72L236.41 747.62L236.22 750.42L235.98 753.11L235.69 755.69L235.36 758.16L234.98 760.52L234.55 762.77L234.08 764.9L233.57 766.92L233.01 768.82L232.42 770.61L231.79 772.28L231.13 773.83L230.43 775.26L229.69 776.57L228.93 777.76L228.13 778.82L227.31 779.76L226.46 780.57L225.58 781.25L224.68 781.81L223.75 782.23L222.81 782.53L221.84 782.69L220.86 782.72L219.86 782.61L218.84 782.37L217.81 781.99L216.77 781.47L215.72 780.82L214.66 780.02L213.59 779.08L212.51 778L211.43 776.77L210.34 775.4L209.25 773.88L208.17 772.22L207.08 770.4L205.99 768.44L204.91 766.32L204.38 765.39L203.87 764.51L203.37 763.68L202.88 762.89L202.4 762.15L201.94 761.46L201.49 760.82L201.05 760.22L200.62 759.68L200.2 759.18L199.78 758.72L199.38 758.32L198.98 757.96L198.58 757.65L198.19 757.39L197.81 757.17L197.42 757.01L197.04 756.89L196.67 756.82L196.29 756.79L195.91 756.82L195.53 756.89L195.15 757.01L194.77 757.17L194.39 757.39L194 757.65L193.6 757.96L193.2 758.32L192.79 758.72L192.38 759.18L191.96 759.68L191.53 760.22L191.09 760.82L190.64 761.46L190.17 762.15L189.7 762.89L189.21 763.68L188.71 764.51L188.19 765.39L187.66 766.32L186.57 768.44L185.47 770.39L184.34 772.2L183.2 773.85L182.05 775.35L180.89 776.7L179.73 777.9L178.56 778.96L177.38 779.87L176.21 780.64L175.04 781.27L173.87 781.75L172.71 782.1L171.57 782.31L170.43 782.38L169.31 782.32L168.21 782.13L167.12 781.81L166.06 781.36L165.02 780.78L164.01 780.07L163.03 779.24L162.08 778.29L161.17 777.21L160.29 776.01L159.45 774.7L158.65 773.27L157.9 771.72L157.19 770.06L156.53 768.29L155.92 766.4L155.37 764.41L154.87 762.31L154.43 760.1L154.06 757.79L153.74 755.38L153.49 752.86L153.31 750.25L153.2 747.53L153.16 744.72L153.17 742.2L153.2 739.8L153.25 737.5L153.32 735.32L153.42 733.23L153.55 731.25L153.71 729.37L153.91 727.58L154.14 725.89L154.42 724.29L154.74 722.78L155.1 721.35L155.52 720.02L155.98 718.76L156.5 717.58L157.07 716.48L157.71 715.45L158.4 714.5L159.16 713.61L159.99 712.79L160.89 712.04L161.86 711.35L162.91 710.71L164.03 710.14L165.24 709.61L166.52 709.14L167.9 708.72L169.36 708.35L170.92 708.02L172.57 707.73L174.32 707.48L176.16 707.27L178.11 707.09L180.17 706.94L182.33 706.83L184.6 706.74L186.99 706.67L189.49 706.63L192.11 706.61L194.85 706.6L197.6 706.61L200.22 706.63ZM193.76 719.51L192.52 719.77L191.31 720.12L190.13 720.56L188.99 721.09L187.91 721.71L186.89 722.42L185.94 723.2L185.07 724.06L184.28 725L183.6 726.01L183.01 727.09L182.55 728.23L182.2 729.43L181.99 730.69L181.91 732.01L181.99 733.13L182.2 734.24L182.55 735.34L183.01 736.41L183.6 737.46L184.28 738.46L185.07 739.42L185.94 740.32L186.89 741.16L187.91 741.93L188.99 742.63L190.13 743.23L191.31 743.75L192.52 744.16L193.76 744.47L195.02 744.66L196.29 744.72L197.78 744.66L199.21 744.47L200.57 744.16L201.86 743.75L203.08 743.23L204.22 742.63L205.28 741.93L206.26 741.16L207.14 740.32L207.94 739.42L208.64 738.46L209.25 737.46L209.75 736.41L210.14 735.34L210.43 734.24L210.61 733.13L210.66 732.01L210.61 730.69L210.43 729.43L210.14 728.23L209.75 727.09L209.25 726.01L208.64 725L207.94 724.06L207.14 723.2L206.26 722.42L205.28 721.71L204.22 721.09L203.08 720.56L201.86 720.12L200.57 719.77L199.21 719.51L197.78 719.36L196.29 719.31L195.02 719.36L193.76 719.51Z" id="bfbWHKpE9"></path><path d="M302.76 706.71L306.2 706.86L309.5 707.06L312.68 707.32L315.72 707.65L318.64 708.03L321.42 708.48L324.08 708.99L326.61 709.56L329.01 710.19L331.29 710.89L333.44 711.65L335.47 712.47L337.38 713.37L339.16 714.32L340.82 715.35L342.36 716.44L343.78 717.6L345.08 718.83L346.26 720.13L347.32 721.49L348.26 722.93L349.09 724.44L349.81 726.02L350.41 727.67L350.89 729.4L351.27 731.19L351.53 733.06L351.68 735.01L351.72 737.03L351.65 739.13L351.47 741.3L351.18 743.55L350.79 745.88L350.28 748.28L349.68 750.77L348.97 753.33L348.15 755.98L347.23 758.7L345.95 761.65L344.48 764.4L342.83 766.96L341.01 769.32L339.04 771.49L336.92 773.46L334.67 775.25L332.29 776.86L329.81 778.27L327.22 779.51L324.54 780.56L321.78 781.43L318.96 782.13L316.07 782.65L313.14 783L310.18 783.18L307.19 783.19L304.18 783.02L301.17 782.7L298.18 782.21L295.19 781.55L292.24 780.74L289.33 779.77L286.47 778.64L283.68 777.36L280.96 775.93L278.32 774.34L275.78 772.61L273.34 770.73L271.02 768.71L268.83 766.54L266.77 764.23L264.87 761.78L263.13 759.2L261.56 756.47L260.17 753.62L258.98 750.63L257.99 747.52L257.21 744.28L256.67 740.91L256.36 738.67L256.09 736.53L255.85 734.49L255.66 732.54L255.5 730.68L255.39 728.91L255.33 727.23L255.32 725.63L255.36 724.11L255.45 722.68L255.6 721.33L255.81 720.05L256.08 718.84L256.42 717.71L256.82 716.65L257.29 715.66L257.83 714.73L258.44 713.86L259.13 713.06L259.9 712.32L260.75 711.63L261.68 711L262.7 710.42L263.81 709.89L265 709.41L266.29 708.98L267.68 708.59L269.16 708.24L270.75 707.94L272.43 707.67L274.23 707.44L276.12 707.24L278.13 707.07L280.25 706.93L282.49 706.82L284.84 706.73L287.32 706.67L289.91 706.63L292.63 706.61L295.48 706.6L299.19 706.63L302.76 706.71ZM290.87 720.92L289.72 721.17L288.67 721.54L287.72 722.01L286.87 722.59L286.14 723.28L285.5 724.06L284.98 724.95L284.57 725.94L284.26 727.02L284.08 728.19L284 729.46L284.05 730.82L284.21 732.26L284.49 733.79L284.89 735.4L285.42 737.1L286.15 740.26L287.16 743.17L288.41 745.82L289.87 748.21L291.52 750.33L293.32 752.18L295.24 753.76L297.26 755.06L299.34 756.08L301.45 756.82L303.57 757.27L305.65 757.43L307.69 757.29L309.63 756.85L311.46 756.11L313.14 755.07L314.65 753.71L315.95 752.05L317.01 750.06L317.81 747.76L318.31 745.13L318.48 742.18L318.43 741.13L318.27 740.07L318.02 739L317.67 737.93L317.23 736.86L316.7 735.79L316.09 734.72L315.4 733.66L314.64 732.62L313.81 731.59L312.91 730.58L311.95 729.6L310.93 728.64L309.85 727.72L308.73 726.82L307.56 725.97L306.35 725.16L305.1 724.39L303.81 723.67L302.5 723.01L301.15 722.4L299.79 721.85L298.07 721.39L296.44 721.06L294.91 720.84L293.47 720.75L292.12 720.78L290.87 720.92Z" id="a4G52sxAih"></path><path d="M390.36 749.8C375.98 744.72 368.79 749.8 368.79 763.78C368.79 777.76 378.86 782.84 401.86 780.3C424.86 777.76 434.92 766.32 437.8 740.91C440.67 721.85 436.36 706.6 427.73 706.6C419.11 706.6 411.92 718.03 411.92 732.01C411.92 748.53 404.73 754.89 390.36 749.8Z" id="a7Ha7eEqc"></path><path d="M502.49 781.57C526.93 780.3 536.99 777.76 524.05 773.95C509.67 771.41 498.17 763.78 498.17 757.43C498.17 751.07 509.67 743.45 524.05 740.91C541.3 737.1 538.43 734.55 512.55 732.01C510.15 731.84 498.17 731 476.61 729.47C498.17 723.37 510.15 719.98 512.55 719.31C547.05 709.14 545.61 709.14 502.49 707.87C459.36 706.6 455.05 710.41 455.05 744.72C455.05 779.03 459.36 782.84 502.49 781.57Z" id="d2ftHHEyZ5"></path><path d="M577.24 777.76C605.99 787.93 646.24 773.95 634.74 757.43C627.55 747.26 618.93 748.53 604.55 758.7C588.74 770.14 584.43 767.59 584.43 745.99C584.43 723.12 590.18 719.31 614.62 725.66C636.18 732.01 641.93 730.74 636.18 720.58C630.43 712.95 610.3 706.6 590.18 706.6C562.86 706.6 555.68 712.95 555.68 738.37C555.68 756.16 565.74 773.95 577.24 777.76Z" id="jv2miAcSe"></path><path d="M712.37 748.53C715.24 735.82 723.87 721.85 733.93 716.76C742.56 711.68 729.62 706.6 703.74 706.6C663.49 706.6 659.18 709.14 667.81 738.37C679.31 775.22 703.74 781.57 712.37 748.53Z" id="b4lzezbWoO"></path><path d="M836 782.84C871.94 782.84 892.06 767.59 876.25 752.34C871.94 748.53 859 751.07 847.5 758.7C833.12 770.14 828.81 767.59 828.81 745.99C828.81 723.12 834.56 719.31 859 725.66C880.56 732.01 886.31 730.74 880.56 720.58C866.19 700.24 804.37 704.06 794.31 725.66C781.37 756.16 800.06 782.84 836 782.84Z" id="bqe0AzYeh"></path><path d="M940.94 781.57C963.94 780.3 969.69 777.76 955.32 773.95C940.94 771.41 929.44 763.78 929.44 757.43C929.44 751.07 940.94 743.45 955.32 740.91C975.44 735.82 975.44 734.55 951 732.01C949.09 731.93 939.5 731.5 922.25 730.74C939.5 723.88 949.09 720.07 951 719.31C976.88 709.14 975.44 707.87 940.94 707.87C905 706.6 900.69 711.68 900.69 744.72C900.69 777.76 905 782.84 940.94 781.57Z" id="aIC36JaFb"></path><path d="M1043.01 781.57C1067.44 780.3 1071.76 777.76 1055.94 773.95C1040.13 770.14 1030.07 756.16 1030.07 737.1C1030.07 705.33 1008.5 695.16 997 721.85C984.07 756.16 1004.19 782.84 1043.01 781.57Z" id="aUIKdd9ff"></path><path d="M1127.82 781.57C1150.82 780.3 1156.57 777.76 1142.2 773.95C1126.38 770.14 1116.32 756.16 1116.32 737.1C1116.32 720.58 1110.57 706.6 1101.95 706.6C1094.76 706.6 1087.57 723.12 1087.57 744.72C1087.57 777.76 1091.88 782.84 1127.82 781.57Z" id="i160et1H8X"></path><path d="M401.86 571.99C420.55 597.49 432.05 597.49 462.24 579.84C508.24 550.42 577.24 550.42 613.18 575.92C641.93 595.53 685.06 583.76 685.06 554.34C685.06 521.01 598.8 477.86 531.24 477.86C493.86 479.82 443.55 493.55 420.55 509.24C383.17 538.66 381.73 542.58 401.86 571.99Z" id="f8eubk4eh"></path><path d="M622.07 614.47C653.19 600.49 627.26 592.23 551.21 592.23C508 592.23 483.8 595.41 483.8 600.49C483.8 622.09 582.32 632.26 622.07 614.47Z" id="e1jFQw8lcm"></path><path d="M100.45 706.64L102.72 706.69L104.9 706.76L107.01 706.86L109.03 706.98L110.97 707.12L112.84 707.29L114.63 707.49L116.35 707.71L117.99 707.96L119.56 708.24L121.05 708.56L122.48 708.9L123.84 709.28L125.12 709.69L126.35 710.13L127.5 710.61L128.59 711.13L129.62 711.68L130.59 712.27L131.49 712.9L132.34 713.57L133.13 714.28L133.86 715.04L134.53 715.83L135.15 716.67L135.72 717.56L136.23 718.49L136.7 719.46L137.11 720.49L137.48 721.56L137.79 722.68L138.06 723.86L138.29 725.08L138.47 726.36L138.61 727.69L138.71 729.08L138.77 730.52L138.79 732.01L138.77 733.24L138.71 734.43L138.62 735.6L138.49 736.74L138.32 737.85L138.11 738.93L137.87 739.98L137.59 741L137.27 741.99L136.92 742.95L136.53 743.89L136.11 744.79L135.65 745.66L135.15 746.5L134.62 747.31L134.05 748.1L133.44 748.85L132.8 749.57L132.13 750.26L131.42 750.92L130.67 751.54L129.89 752.14L129.08 752.71L128.23 753.24L127.35 753.74L126.43 754.21L125.47 754.65L124.49 755.06L123.47 755.44L122.41 755.78L121.32 756.09L120.2 756.37L119.05 756.62L117.86 756.83L116.64 757.01L115.38 757.16L114.09 757.28L112.77 757.36L111.42 757.41L110.04 757.43L108.86 757.44L107.69 757.47L106.53 757.51L105.39 757.58L104.26 757.66L103.15 757.76L102.05 757.88L100.97 758.02L99.91 758.17L98.87 758.34L97.85 758.53L96.85 758.73L95.87 758.95L94.92 759.19L93.99 759.44L93.08 759.7L92.2 759.99L91.35 760.28L90.53 760.6L89.73 760.92L88.96 761.26L88.23 761.62L87.52 761.99L86.85 762.37L86.21 762.76L85.61 763.17L85.04 763.59L84.51 764.03L84.01 764.47L83.55 764.93L83.14 765.4L82.76 765.89L82.42 766.38L82.12 766.88L81.87 767.4L81.66 767.93L81.5 768.46L81.38 769.01L81.31 769.57L81.28 770.14L81.27 770.61L81.24 771.09L81.19 771.56L81.12 772.04L81.02 772.51L80.91 772.97L80.77 773.44L80.62 773.9L80.44 774.35L80.25 774.8L80.04 775.25L79.81 775.68L79.56 776.11L79.29 776.53L79.01 776.95L78.71 777.35L78.39 777.75L78.05 778.13L77.7 778.51L77.33 778.87L76.95 779.22L76.54 779.56L76.13 779.89L75.7 780.2L75.25 780.5L74.79 780.78L74.31 781.05L73.82 781.3L73.31 781.53L72.79 781.75L72.26 781.95L71.72 782.13L71.16 782.29L70.59 782.44L70 782.56L69.41 782.66L68.8 782.74L68.18 782.8L67.55 782.83L66.91 782.84L66.37 782.81L65.83 782.71L65.29 782.55L64.76 782.32L64.23 782.04L63.7 781.69L63.17 781.29L62.65 780.83L62.14 780.31L61.63 779.75L61.13 779.12L60.63 778.45L60.15 777.73L59.67 776.96L59.2 776.14L58.74 775.28L58.3 774.37L57.86 773.42L57.44 772.44L57.03 771.41L56.63 770.34L56.25 769.23L55.88 768.1L55.52 766.92L55.19 765.72L54.87 764.48L54.56 763.22L54.28 761.92L54.01 760.6L53.77 759.25L53.54 757.88L53.34 756.49L53.16 755.08L52.99 753.65L52.86 752.2L52.74 750.73L52.65 749.25L52.59 747.75L52.55 746.24L52.53 744.72L52.54 742.2L52.57 739.8L52.62 737.5L52.69 735.32L52.79 733.23L52.93 731.25L53.09 729.37L53.29 727.58L53.53 725.89L53.81 724.29L54.14 722.78L54.51 721.35L54.94 720.02L55.41 718.76L55.95 717.58L56.54 716.48L57.19 715.45L57.9 714.5L58.69 713.61L59.54 712.79L60.47 712.04L61.47 711.35L62.55 710.71L63.71 710.14L64.96 709.61L66.29 709.14L67.71 708.72L69.23 708.35L70.84 708.02L72.55 707.73L74.36 707.48L76.27 707.27L78.29 707.09L80.42 706.94L82.66 706.83L85.02 706.74L87.5 706.67L90.09 706.63L92.81 706.61L95.66 706.6L98.1 706.61L100.45 706.64ZM93.14 719.51L91.89 719.77L90.68 720.12L89.5 720.56L88.37 721.09L87.28 721.71L86.26 722.42L85.31 723.2L84.44 724.06L83.65 725L82.97 726.01L82.38 727.09L81.92 728.23L81.57 729.43L81.36 730.69L81.28 732.01L81.36 733.13L81.57 734.24L81.92 735.34L82.38 736.41L82.97 737.46L83.65 738.46L84.44 739.42L85.31 740.32L86.26 741.16L87.28 741.93L88.37 742.63L89.5 743.23L90.68 743.75L91.89 744.16L93.14 744.47L94.39 744.66L95.66 744.72L97.15 744.66L98.58 744.47L99.94 744.16L101.23 743.75L102.45 743.23L103.59 742.63L104.65 741.93L105.63 741.16L106.52 740.32L107.31 739.42L108.01 738.46L108.62 737.46L109.12 736.41L109.51 735.34L109.8 734.24L109.98 733.13L110.04 732.01L109.98 730.69L109.8 729.43L109.51 728.23L109.12 727.09L108.62 726.01L108.01 725L107.31 724.06L106.52 723.2L105.63 722.42L104.65 721.71L103.59 721.09L102.45 720.56L101.23 720.12L99.94 719.77L98.58 719.51L97.15 719.36L95.66 719.31L94.39 719.36L93.14 719.51Z" id="a5E1VhzdX"></path><path d="M200.22 706.63L202.74 706.67L205.14 706.74L207.43 706.83L209.62 706.94L211.7 707.09L213.68 707.27L215.56 707.48L217.34 707.73L219.02 708.02L220.61 708.35L222.11 708.72L223.52 709.14L224.85 709.61L226.09 710.14L227.24 710.71L228.32 711.35L229.32 712.04L230.25 712.79L231.1 713.61L231.89 714.5L232.6 715.45L233.25 716.48L233.84 717.58L234.36 718.76L234.83 720.02L235.23 721.35L235.59 722.78L235.89 724.29L236.14 725.89L236.34 727.58L236.5 729.37L236.62 731.25L236.69 733.23L236.73 735.32L236.73 737.5L236.7 739.8L236.63 742.2L236.54 744.72L236.41 747.62L236.22 750.42L235.98 753.11L235.69 755.69L235.36 758.16L234.98 760.52L234.55 762.77L234.08 764.9L233.57 766.92L233.01 768.82L232.42 770.61L231.79 772.28L231.13 773.83L230.43 775.26L229.69 776.57L228.93 777.76L228.13 778.82L227.31 779.76L226.46 780.57L225.58 781.25L224.68 781.81L223.75 782.23L222.81 782.53L221.84 782.69L220.86 782.72L219.86 782.61L218.84 782.37L217.81 781.99L216.77 781.47L215.72 780.82L214.66 780.02L213.59 779.08L212.51 778L211.43 776.77L210.34 775.4L209.25 773.88L208.17 772.22L207.08 770.4L205.99 768.44L204.91 766.32L204.38 765.39L203.87 764.51L203.37 763.68L202.88 762.89L202.4 762.15L201.94 761.46L201.49 760.82L201.05 760.22L200.62 759.68L200.2 759.18L199.78 758.72L199.38 758.32L198.98 757.96L198.58 757.65L198.19 757.39L197.81 757.17L197.42 757.01L197.04 756.89L196.67 756.82L196.29 756.79L195.91 756.82L195.53 756.89L195.15 757.01L194.77 757.17L194.39 757.39L194 757.65L193.6 757.96L193.2 758.32L192.79 758.72L192.38 759.18L191.96 759.68L191.53 760.22L191.09 760.82L190.64 761.46L190.17 762.15L189.7 762.89L189.21 763.68L188.71 764.51L188.19 765.39L187.66 766.32L186.57 768.44L185.47 770.39L184.34 772.2L183.2 773.85L182.05 775.35L180.89 776.7L179.73 777.9L178.56 778.96L177.38 779.87L176.21 780.64L175.04 781.27L173.87 781.75L172.71 782.1L171.57 782.31L170.43 782.38L169.31 782.32L168.21 782.13L167.12 781.81L166.06 781.36L165.02 780.78L164.01 780.07L163.03 779.24L162.08 778.29L161.17 777.21L160.29 776.01L159.45 774.7L158.65 773.27L157.9 771.72L157.19 770.06L156.53 768.29L155.92 766.4L155.37 764.41L154.87 762.31L154.43 760.1L154.06 757.79L153.74 755.38L153.49 752.86L153.31 750.25L153.2 747.53L153.16 744.72L153.17 742.2L153.2 739.8L153.25 737.5L153.32 735.32L153.42 733.23L153.55 731.25L153.71 729.37L153.91 727.58L154.14 725.89L154.42 724.29L154.74 722.78L155.1 721.35L155.52 720.02L155.98 718.76L156.5 717.58L157.07 716.48L157.71 715.45L158.4 714.5L159.16 713.61L159.99 712.79L160.89 712.04L161.86 711.35L162.91 710.71L164.03 710.14L165.24 709.61L166.52 709.14L167.9 708.72L169.36 708.35L170.92 708.02L172.57 707.73L174.32 707.48L176.16 707.27L178.11 707.09L180.17 706.94L182.33 706.83L184.6 706.74L186.99 706.67L189.49 706.63L192.11 706.61L194.85 706.6L197.6 706.61L200.22 706.63ZM193.76 719.51L192.52 719.77L191.31 720.12L190.13 720.56L188.99 721.09L187.91 721.71L186.89 722.42L185.94 723.2L185.07 724.06L184.28 725L183.6 726.01L183.01 727.09L182.55 728.23L182.2 729.43L181.99 730.69L181.91 732.01L181.99 733.13L182.2 734.24L182.55 735.34L183.01 736.41L183.6 737.46L184.28 738.46L185.07 739.42L185.94 740.32L186.89 741.16L187.91 741.93L188.99 742.63L190.13 743.23L191.31 743.75L192.52 744.16L193.76 744.47L195.02 744.66L196.29 744.72L197.78 744.66L199.21 744.47L200.57 744.16L201.86 743.75L203.08 743.23L204.22 742.63L205.28 741.93L206.26 741.16L207.14 740.32L207.94 739.42L208.64 738.46L209.25 737.46L209.75 736.41L210.14 735.34L210.43 734.24L210.61 733.13L210.66 732.01L210.61 730.69L210.43 729.43L210.14 728.23L209.75 727.09L209.25 726.01L208.64 725L207.94 724.06L207.14 723.2L206.26 722.42L205.28 721.71L204.22 721.09L203.08 720.56L201.86 720.12L200.57 719.77L199.21 719.51L197.78 719.36L196.29 719.31L195.02 719.36L193.76 719.51Z" id="arHkQaKy3"></path><path d="M302.76 706.71L306.2 706.86L309.5 707.06L312.68 707.32L315.72 707.65L318.64 708.03L321.42 708.48L324.08 708.99L326.61 709.56L329.01 710.19L331.29 710.89L333.44 711.65L335.47 712.47L337.38 713.37L339.16 714.32L340.82 715.35L342.36 716.44L343.78 717.6L345.08 718.83L346.26 720.13L347.32 721.49L348.26 722.93L349.09 724.44L349.81 726.02L350.41 727.67L350.89 729.4L351.27 731.19L351.53 733.06L351.68 735.01L351.72 737.03L351.65 739.13L351.47 741.3L351.18 743.55L350.79 745.88L350.28 748.28L349.68 750.77L348.97 753.33L348.15 755.98L347.23 758.7L345.95 761.65L344.48 764.4L342.83 766.96L341.01 769.32L339.04 771.49L336.92 773.46L334.67 775.25L332.29 776.86L329.81 778.27L327.22 779.51L324.54 780.56L321.78 781.43L318.96 782.13L316.07 782.65L313.14 783L310.18 783.18L307.19 783.19L304.18 783.02L301.17 782.7L298.18 782.21L295.19 781.55L292.24 780.74L289.33 779.77L286.47 778.64L283.68 777.36L280.96 775.93L278.32 774.34L275.78 772.61L273.34 770.73L271.02 768.71L268.83 766.54L266.77 764.23L264.87 761.78L263.13 759.2L261.56 756.47L260.17 753.62L258.98 750.63L257.99 747.52L257.21 744.28L256.67 740.91L256.36 738.67L256.09 736.53L255.85 734.49L255.66 732.54L255.5 730.68L255.39 728.91L255.33 727.23L255.32 725.63L255.36 724.11L255.45 722.68L255.6 721.33L255.81 720.05L256.08 718.84L256.42 717.71L256.82 716.65L257.29 715.66L257.83 714.73L258.44 713.86L259.13 713.06L259.9 712.32L260.75 711.63L261.68 711L262.7 710.42L263.81 709.89L265 709.41L266.29 708.98L267.68 708.59L269.16 708.24L270.75 707.94L272.43 707.67L274.23 707.44L276.12 707.24L278.13 707.07L280.25 706.93L282.49 706.82L284.84 706.73L287.32 706.67L289.91 706.63L292.63 706.61L295.48 706.6L299.19 706.63L302.76 706.71ZM290.87 720.92L289.72 721.17L288.67 721.54L287.72 722.01L286.87 722.59L286.14 723.28L285.5 724.06L284.98 724.95L284.57 725.94L284.26 727.02L284.08 728.19L284 729.46L284.05 730.82L284.21 732.26L284.49 733.79L284.89 735.4L285.42 737.1L286.15 740.26L287.16 743.17L288.41 745.82L289.87 748.21L291.52 750.33L293.32 752.18L295.24 753.76L297.26 755.06L299.34 756.08L301.45 756.82L303.57 757.27L305.65 757.43L307.69 757.29L309.63 756.85L311.46 756.11L313.14 755.07L314.65 753.71L315.95 752.05L317.01 750.06L317.81 747.76L318.31 745.13L318.48 742.18L318.43 741.13L318.27 740.07L318.02 739L317.67 737.93L317.23 736.86L316.7 735.79L316.09 734.72L315.4 733.66L314.64 732.62L313.81 731.59L312.91 730.58L311.95 729.6L310.93 728.64L309.85 727.72L308.73 726.82L307.56 725.97L306.35 725.16L305.1 724.39L303.81 723.67L302.5 723.01L301.15 722.4L299.79 721.85L298.07 721.39L296.44 721.06L294.91 720.84L293.47 720.75L292.12 720.78L290.87 720.92Z" id="b1tJrckUUp"></path><path d="M390.36 749.8C375.98 744.72 368.79 749.8 368.79 763.78C368.79 777.76 378.86 782.84 401.86 780.3C424.86 777.76 434.92 766.32 437.8 740.91C440.67 721.85 436.36 706.6 427.73 706.6C419.11 706.6 411.92 718.03 411.92 732.01C411.92 748.53 404.73 754.89 390.36 749.8Z" id="bmK7RsPwj"></path><path d="M502.49 781.57C526.93 780.3 536.99 777.76 524.05 773.95C509.67 771.41 498.17 763.78 498.17 757.43C498.17 751.07 509.67 743.45 524.05 740.91C541.3 737.1 538.43 734.55 512.55 732.01C510.15 731.84 498.17 731 476.61 729.47C498.17 723.37 510.15 719.98 512.55 719.31C547.05 709.14 545.61 709.14 502.49 707.87C459.36 706.6 455.05 710.41 455.05 744.72C455.05 779.03 459.36 782.84 502.49 781.57Z" id="bIa17SIcn"></path><path d="M577.24 777.76C605.99 787.93 646.24 773.95 634.74 757.43C627.55 747.26 618.93 748.53 604.55 758.7C588.74 770.14 584.43 767.59 584.43 745.99C584.43 723.12 590.18 719.31 614.62 725.66C636.18 732.01 641.93 730.74 636.18 720.58C630.43 712.95 610.3 706.6 590.18 706.6C562.86 706.6 555.68 712.95 555.68 738.37C555.68 756.16 565.74 773.95 577.24 777.76Z" id="bQJxjeVDo"></path><path d="M712.37 748.53C715.24 735.82 723.87 721.85 733.93 716.76C742.56 711.68 729.62 706.6 703.74 706.6C663.49 706.6 659.18 709.14 667.81 738.37C679.31 775.22 703.74 781.57 712.37 748.53Z" id="b1X6rWa4Qa"></path><path d="M836 782.84C871.94 782.84 892.06 767.59 876.25 752.34C871.94 748.53 859 751.07 847.5 758.7C833.12 770.14 828.81 767.59 828.81 745.99C828.81 723.12 834.56 719.31 859 725.66C880.56 732.01 886.31 730.74 880.56 720.58C866.19 700.24 804.37 704.06 794.31 725.66C781.37 756.16 800.06 782.84 836 782.84Z" id="g41y3igeb4"></path><path d="M940.94 781.57C963.94 780.3 969.69 777.76 955.32 773.95C940.94 771.41 929.44 763.78 929.44 757.43C929.44 751.07 940.94 743.45 955.32 740.91C975.44 735.82 975.44 734.55 951 732.01C949.09 731.93 939.5 731.5 922.25 730.74C939.5 723.88 949.09 720.07 951 719.31C976.88 709.14 975.44 707.87 940.94 707.87C905 706.6 900.69 711.68 900.69 744.72C900.69 777.76 905 782.84 940.94 781.57Z" id="m1dRwcDG"></path><path d="M1043.01 781.57C1067.44 780.3 1071.76 777.76 1055.94 773.95C1040.13 770.14 1030.07 756.16 1030.07 737.1C1030.07 705.33 1008.5 695.16 997 721.85C984.07 756.16 1004.19 782.84 1043.01 781.57Z" id="a2G0PIaLJo"></path><path d="M1127.82 781.57C1150.82 780.3 1156.57 777.76 1142.2 773.95C1126.38 770.14 1116.32 756.16 1116.32 737.1C1116.32 720.58 1110.57 706.6 1101.95 706.6C1094.76 706.6 1087.57 723.12 1087.57 744.72C1087.57 777.76 1091.88 782.84 1127.82 781.57Z" id="a4LTV36ltW"></path></defs><g><g><g><use xlink:href="#c2TxDoqPLF" opacity="1" fill="#fbf9f9" fill-opacity="1"></use><g><use xlink:href="#c2TxDoqPLF" opacity="1" fill-opacity="0" stroke="#000000" stroke-width="1" stroke-opacity="0"></use></g></g><g><use xlink:href="#c1ruxvcPeT" opacity="1" fill="#fbf9f9" fill-opacity="1"></use><g><use xlink:href="#c1ruxvcPeT" opacity="1" fill-opacity="0" stroke="#000000" stroke-width="1" stroke-opacity="0"></use></g></g><g><use xlink:href="#c4yOsSGJ5q" opacity="1" fill="#fbf9f9" fill-opacity="1"></use><g><use xlink:href="#c4yOsSGJ5q" opacity="1" fill-opacity="0" stroke="#000000" stroke-width="1" stroke-opacity="0"></use></g></g><g><use xlink:href="#c7DoxIRc3" opacity="1" fill="#fbf9f9" fill-opacity="1"></use><g><use xlink:href="#c7DoxIRc3" opacity="1" fill-opacity="0" stroke="#000000" stroke-width="1" stroke-opacity="0"></use></g></g><g><use xlink:href="#b73mmF9sN0" opacity="1" fill="#fbf9f9" fill-opacity="1"></use><g><use xlink:href="#b73mmF9sN0" opacity="1" fill-opacity="0" stroke="#000000" stroke-width="1" stroke-opacity="0"></use></g></g><g><use xlink:href="#bd7DVrAWk" opacity="1" fill="#fbf9f9" fill-opacity="1"></use><g><use xlink:href="#bd7DVrAWk" opacity="1" fill-opacity="0" stroke="#000000" stroke-width="1" stroke-opacity="0"></use></g></g><g><use xlink:href="#cOcQ6m8k" opacity="1" fill="#fbf9f9" fill-opacity="1"></use><g><use xlink:href="#cOcQ6m8k" opacity="1" fill-opacity="0" stroke="#000000" stroke-width="1" stroke-opacity="0"></use></g></g><g><use xlink:href="#dTS1CfjEG" opacity="1" fill="#fbf9f9" fill-opacity="1"></use><g><use xlink:href="#dTS1CfjEG" opacity="1" fill-opacity="0" stroke="#000000" stroke-width="1" stroke-opacity="0"></use></g></g><g><use xlink:href="#gysfSFc63" opacity="1" fill="#fbf9f9" fill-opacity="1"></use><g><use xlink:href="#gysfSFc63" opacity="1" fill-opacity="0" stroke="#000000" stroke-width="1" stroke-opacity="0"></use></g></g><g><use xlink:href="#b27Ukkf7r8" opacity="1" fill="#fbf9f9" fill-opacity="1"></use><g><use xlink:href="#b27Ukkf7r8" opacity="1" fill-opacity="0" stroke="#000000" stroke-width="1" stroke-opacity="0"></use></g></g><g><use xlink:href="#a7Rzi0Cc8" opacity="1" fill="#fbf9f9" fill-opacity="1"></use><g><use xlink:href="#a7Rzi0Cc8" opacity="1" fill-opacity="0" stroke="#000000" stroke-width="1" stroke-opacity="0"></use></g></g><g><use xlink:href="#aSqFuJUy" opacity="1" fill="#fbf9f9" fill-opacity="1"></use><g><use xlink:href="#aSqFuJUy" opacity="1" fill-opacity="0" stroke="#000000" stroke-width="1" stroke-opacity="0"></use></g></g><g><use xlink:href="#a65UrL563D" opacity="1" fill="#fbf9f9" fill-opacity="1"></use><g><use xlink:href="#a65UrL563D" opacity="1" fill-opacity="0" stroke="#000000" stroke-width="1" stroke-opacity="0"></use></g></g><g><use xlink:href="#a5vauxBNLr" opacity="1" fill="#fbf9f9" fill-opacity="1"></use><g><use xlink:href="#a5vauxBNLr" opacity="1" fill-opacity="0" stroke="#000000" stroke-width="1" stroke-opacity="0"></use></g></g><g><use xlink:href="#a3b586zw2M" opacity="1" fill="#fbf9f9" fill-opacity="1"></use><g><use xlink:href="#a3b586zw2M" opacity="1" fill-opacity="0" stroke="#000000" stroke-width="1" stroke-opacity="0"></use></g></g><g><use xlink:href="#dEDTiR2bk" opacity="1" fill="#fbf9f9" fill-opacity="1"></use><g><use xlink:href="#dEDTiR2bk" opacity="1" fill-opacity="0" stroke="#000000" stroke-width="1" stroke-opacity="0"></use></g></g><g><use xlink:href="#bLafu3zeB" opacity="1" fill="#fbf9f9" fill-opacity="1"></use><g><use xlink:href="#bLafu3zeB" opacity="1" fill-opacity="0" stroke="#000000" stroke-width="1" stroke-opacity="0"></use></g></g><g><use xlink:href="#bfbWHKpE9" opacity="1" fill="#fbf9f9" fill-opacity="1"></use><g><use xlink:href="#bfbWHKpE9" opacity="1" fill-opacity="0" stroke="#000000" stroke-width="1" stroke-opacity="0"></use></g></g><g><use xlink:href="#a4G52sxAih" opacity="1" fill="#fbf9f9" fill-opacity="1"></use><g><use xlink:href="#a4G52sxAih" opacity="1" fill-opacity="0" stroke="#000000" stroke-width="1" stroke-opacity="0"></use></g></g><g><use xlink:href="#a7Ha7eEqc" opacity="1" fill="#fbf9f9" fill-opacity="1"></use><g><use xlink:href="#a7Ha7eEqc" opacity="1" fill-opacity="0" stroke="#000000" stroke-width="1" stroke-opacity="0"></use></g></g><g><use xlink:href="#d2ftHHEyZ5" opacity="1" fill="#fbf9f9" fill-opacity="1"></use><g><use xlink:href="#d2ftHHEyZ5" opacity="1" fill-opacity="0" stroke="#000000" stroke-width="1" stroke-opacity="0"></use></g></g><g><use xlink:href="#jv2miAcSe" opacity="1" fill="#fbf9f9" fill-opacity="1"></use><g><use xlink:href="#jv2miAcSe" opacity="1" fill-opacity="0" stroke="#000000" stroke-width="1" stroke-opacity="0"></use></g></g><g><use xlink:href="#b4lzezbWoO" opacity="1" fill="#fbf9f9" fill-opacity="1"></use><g><use xlink:href="#b4lzezbWoO" opacity="1" fill-opacity="0" stroke="#000000" stroke-width="1" stroke-opacity="0"></use></g></g><g><use xlink:href="#bqe0AzYeh" opacity="1" fill="#fbf9f9" fill-opacity="1"></use><g><use xlink:href="#bqe0AzYeh" opacity="1" fill-opacity="0" stroke="#000000" stroke-width="1" stroke-opacity="0"></use></g></g><g><use xlink:href="#aIC36JaFb" opacity="1" fill="#fbf9f9" fill-opacity="1"></use><g><use xlink:href="#aIC36JaFb" opacity="1" fill-opacity="0" stroke="#000000" stroke-width="1" stroke-opacity="0"></use></g></g><g><use xlink:href="#aUIKdd9ff" opacity="1" fill="#fbf9f9" fill-opacity="1"></use><g><use xlink:href="#aUIKdd9ff" opacity="1" fill-opacity="0" stroke="#000000" stroke-width="1" stroke-opacity="0"></use></g></g><g><use xlink:href="#i160et1H8X" opacity="1" fill="#fbf9f9" fill-opacity="1"></use><g><use xlink:href="#i160et1H8X" opacity="1" fill-opacity="0" stroke="#000000" stroke-width="1" stroke-opacity="0"></use></g></g><g><use xlink:href="#f8eubk4eh" opacity="1" fill="#fbf9f9" fill-opacity="1"></use><g><use xlink:href="#f8eubk4eh" opacity="1" fill-opacity="0" stroke="#000000" stroke-width="1" stroke-opacity="0"></use></g></g><g><use xlink:href="#e1jFQw8lcm" opacity="1" fill="#fbf9f9" fill-opacity="1"></use><g><use xlink:href="#e1jFQw8lcm" opacity="1" fill-opacity="0" stroke="#000000" stroke-width="1" stroke-opacity="0"></use></g></g><g><use xlink:href="#a5E1VhzdX" opacity="1" fill="#fbf9f9" fill-opacity="1"></use><g><use xlink:href="#a5E1VhzdX" opacity="1" fill-opacity="0" stroke="#000000" stroke-width="1" stroke-opacity="0"></use></g></g><g><use xlink:href="#arHkQaKy3" opacity="1" fill="#fbf9f9" fill-opacity="1"></use><g><use xlink:href="#arHkQaKy3" opacity="1" fill-opacity="0" stroke="#000000" stroke-width="1" stroke-opacity="0"></use></g></g><g><use xlink:href="#b1tJrckUUp" opacity="1" fill="#fbf9f9" fill-opacity="1"></use><g><use xlink:href="#b1tJrckUUp" opacity="1" fill-opacity="0" stroke="#000000" stroke-width="1" stroke-opacity="0"></use></g></g><g><use xlink:href="#bmK7RsPwj" opacity="1" fill="#fbf9f9" fill-opacity="1"></use><g><use xlink:href="#bmK7RsPwj" opacity="1" fill-opacity="0" stroke="#000000" stroke-width="1" stroke-opacity="0"></use></g></g><g><use xlink:href="#bIa17SIcn" opacity="1" fill="#fbf9f9" fill-opacity="1"></use><g><use xlink:href="#bIa17SIcn" opacity="1" fill-opacity="0" stroke="#000000" stroke-width="1" stroke-opacity="0"></use></g></g><g><use xlink:href="#bQJxjeVDo" opacity="1" fill="#fbf9f9" fill-opacity="1"></use><g><use xlink:href="#bQJxjeVDo" opacity="1" fill-opacity="0" stroke="#000000" stroke-width="1" stroke-opacity="0"></use></g></g><g><use xlink:href="#b1X6rWa4Qa" opacity="1" fill="#fbf9f9" fill-opacity="1"></use><g><use xlink:href="#b1X6rWa4Qa" opacity="1" fill-opacity="0" stroke="#000000" stroke-width="1" stroke-opacity="0"></use></g></g><g><use xlink:href="#g41y3igeb4" opacity="1" fill="#fbf9f9" fill-opacity="1"></use><g><use xlink:href="#g41y3igeb4" opacity="1" fill-opacity="0" stroke="#000000" stroke-width="1" stroke-opacity="0"></use></g></g><g><use xlink:href="#m1dRwcDG" opacity="1" fill="#fbf9f9" fill-opacity="1"></use><g><use xlink:href="#m1dRwcDG" opacity="1" fill-opacity="0" stroke="#000000" stroke-width="1" stroke-opacity="0"></use></g></g><g><use xlink:href="#a2G0PIaLJo" opacity="1" fill="#fbf9f9" fill-opacity="1"></use><g><use xlink:href="#a2G0PIaLJo" opacity="1" fill-opacity="0" stroke="#000000" stroke-width="1" stroke-opacity="0"></use></g></g><g><use xlink:href="#a4LTV36ltW" opacity="1" fill="#fbf9f9" fill-opacity="1"></use><g><use xlink:href="#a4LTV36ltW" opacity="1" fill-opacity="0" stroke="#000000" stroke-width="1" stroke-opacity="0"></use></g></g></g></g></svg>